<?xml version="1.0" encoding="UTF-8"?>
<svg width="257px" height="75px" viewBox="0 0 257 75" version="1.1" xmlns="http://www.w3.org/2000/svg" xmlns:xlink="http://www.w3.org/1999/xlink">
    <title>CDE75DA7-7D6B-494A-8F20-3D7709A78220</title>
    <g id="Page-1" stroke="none" stroke-width="1" fill="none" fill-rule="evenodd">
        <g transform="translate(-504.000000, -74.000000)" id="Vlak">
            <g transform="translate(475.000000, 48.000000)">
                <g id="Building-Balance_Logo_RGB" transform="translate(29.950000, 26.000000)">
                    <path d="M108.192904,64.439971 C108.192904,61.611655 106.669023,60.1972554 103.430868,60.1972554 L94.5739077,60.1972554 L94.5739077,68.7300507 L103.430868,68.7300507 C106.669023,68.7300507 108.192904,67.0329162 108.192904,64.439971 Z M107.145251,51.240116 C107.145251,49.1657599 105.954803,48.0814593 103.049837,48.0814593 L94.5739077,48.0814593 L94.5739077,54.3516502 L103.38327,54.3516502 C106.145197,54.3516502 107.145251,53.078618 107.145251,51.240116 Z M115.05,64.345726 C115.05,71.2758734 110.335563,75 103.192632,75 L88.05,75 L88.05,42 L103.335672,42 C109.811981,42 113.907151,45.0644117 113.907151,50.721527 C113.907151,53.5500846 112.573664,55.8129307 110.383162,57.1328437 C113.049892,58.3113892 115.05,60.7158444 115.05,64.345726 L115.05,64.345726 Z" id="Fill-1" fill="#19645B"></path>
                    <path d="M132.333336,67.1572876 L132.333336,64.0202513 C131.164949,63.3070781 130.045713,62.9744914 127.660538,62.9744914 C125.129657,62.9744914 123.766914,64.1152761 123.766914,66.1115276 C123.766914,67.8704608 124.789096,69.4388571 127.660538,69.4388571 C129.851107,69.4388571 131.603063,68.3455847 132.333336,67.1572876 Z M139.05,74.4773637 L132.333336,74.4773637 L132.333336,72.8136989 C131.116298,74.0495085 128.974879,75 126.589704,75 C121.819852,75 117.05,72.1480381 117.05,66.1115276 C117.05,60.5976534 121.625246,57.84096 127.41728,57.84096 C129.753554,57.84096 131.262502,58.3163276 132.333336,58.8389639 L132.333336,57.6031544 C132.333336,55.8444649 131.116298,54.4186057 128.68272,54.4186057 C125.616422,54.4186057 124.010171,54.8464609 121.673897,56.0822705 L119.094115,51.5188878 C122.063359,49.8552231 124.545588,49 128.68272,49 C134.863967,49 139.05,52.1370362 139.05,57.7456916 L139.05,74.4773637 L139.05,74.4773637 Z" id="Fill-2" fill="#19645B"></path>
                    <polyline id="Fill-3" fill="#19645B" points="151.05 75 145.05 75 145.05 43.3128129 151.05 40 151.05 75"></polyline>
                    <path d="M171.33326,67.1572876 L171.33326,64.0202513 C170.165109,63.3070781 169.045861,62.9744914 166.660658,62.9744914 C164.129499,62.9744914 162.76699,64.1152761 162.76699,66.1115276 C162.76699,67.8704608 163.788934,69.4388571 166.660658,69.4388571 C168.851003,69.4388571 170.603228,68.3455847 171.33326,67.1572876 Z M178.05,74.4773637 L171.33326,74.4773637 L171.33326,72.8136989 C170.116457,74.0495085 167.975014,75 165.589812,75 C160.819906,75 156.05,72.1480381 156.05,66.1115276 C156.05,60.5976534 160.625297,57.84096 166.417148,57.84096 C168.753698,57.84096 170.262414,58.3163276 171.33326,58.8389639 L171.33326,57.6031544 C171.33326,55.8444649 170.116457,54.4186057 167.682852,54.4186057 C164.61652,54.4186057 163.01025,54.8464609 160.67395,56.0822705 L158.094138,51.5188878 C161.063167,49.8552231 163.545673,49 167.682852,49 C173.864169,49 178.05,52.1370362 178.05,57.7456916 L178.05,74.4773637 L178.05,74.4773637 Z" id="Fill-4" fill="#19645B"></path>
                    <path d="M205.05,75 L198.37743,75 L198.37743,61.2239585 C198.37743,56.6641865 196.830114,55.3058031 194.074041,55.3058031 C191.317969,55.3058031 189.72257,56.6641865 189.72257,61.0782487 L189.72257,75 L183.05,75 L183.05,49.5333576 L189.72257,49.5333576 L189.72257,51.2311503 C190.882748,50.0184767 193.010277,49 195.669688,49 C202.148689,49 205.05,53.4625493 205.05,60.6416166 L205.05,75" id="Fill-5" fill="#19645B"></path>
                    <path d="M231.05,69.4388571 C228.616237,72.6711618 225.752671,75 220.789498,75 C214.251681,75 209.05,69.6766627 209.05,62.0237562 C209.05,54.3708497 214.108576,49 221.075952,49 C225.848074,49 228.902203,51.3288382 231.002054,54.5133869 L226.659491,58.88672 C225.180006,56.7952 223.605118,55.3215849 220.932603,55.3215849 C217.783071,55.3215849 215.731166,57.9359848 215.731166,62.0237562 C215.731166,66.0165028 217.783071,68.6784151 220.932603,68.6784151 C223.50996,68.6784151 225.132305,67.5376304 226.850298,65.4936228 L231.05,69.4388571" id="Fill-6" fill="#19645B"></path>
                    <path d="M248.568915,59.1717943 C248.375598,56.9377372 247.022377,54.7039238 244.025959,54.7039238 C241.607759,54.7039238 240.108806,56.6526628 239.86716,59.1717943 L248.568915,59.1717943 Z M255.05,62.0237562 C255.05,62.9744914 255.000431,63.6396649 254.953341,64.1152761 L239.770501,64.1152761 C240.012148,67.5376304 242.573601,68.8209523 244.992546,68.8209523 C246.82906,68.8209523 248.375598,68.1555351 249.344662,67.0622628 L254.080935,70.959741 C252.051104,73.5268721 248.375598,75 244.992546,75 C237.691349,75 233.05,69.913981 233.05,62.0237562 C233.05,54.3708497 237.933244,49 244.363025,49 C251.131608,49 255.05,54.8939733 255.05,62.0237562 L255.05,62.0237562 Z" id="Fill-7" fill="#19645B"></path>
                    <path d="M108.193086,24.439971 C108.193086,21.611655 106.668947,20.1972554 103.431007,20.1972554 L94.5739667,20.1972554 L94.5739667,28.7300507 L103.431007,28.7300507 C106.668947,28.7300507 108.193086,27.0329162 108.193086,24.439971 Z M107.145424,11.240116 C107.145424,9.16575985 105.954965,8.0814593 103.049973,8.0814593 L94.5739667,8.0814593 L94.5739667,14.3516502 L103.383165,14.3516502 C106.14536,14.3516502 107.145424,13.078618 107.145424,11.240116 Z M115.05,24.345726 C115.05,31.2758734 110.335765,35 103.192769,35 L88.05,35 L88.05,2 L103.33581,2 C109.811934,2 113.907384,5.06441172 113.907384,10.721527 C113.907384,13.5500846 112.573885,15.812689 110.383363,17.1328437 C113.050118,18.3113892 115.05,20.7158444 115.05,24.345726 L115.05,24.345726 Z" id="Fill-8" fill="#19645B"></path>
                    <path d="M141.05,35.4666424 L134.377603,35.4666424 L134.377603,33.7688497 C133.217164,34.9815233 131.089611,36 128.43017,36 C121.951096,36 119.05,31.5374507 119.05,24.3583834 L119.05,10 L125.722645,10 L125.722645,23.7760415 C125.722645,28.3358135 127.269979,29.6941969 130.025835,29.6941969 C132.781938,29.6941969 134.377603,28.3358135 134.377603,23.9217513 L134.377603,10 L141.05,10 L141.05,35.4666424" id="Fill-9" fill="#19645B"></path>
                    <path d="M146.556359,35 L153.543641,35 L153.543641,10.4132499 L146.556359,10.4132499 L146.556359,35 Z M154.05,4.69981148 C154.05,6.7136785 152.227264,8.3993829 150.05,8.3993829 C147.872995,8.3993829 146.05,6.7136785 146.05,4.69981148 C146.05,2.68594446 147.872995,1 150.05,1 C152.227264,1 154.05,2.68594446 154.05,4.69981148 L154.05,4.69981148 Z" id="Fill-10" fill="#19645B"></path>
                    <polyline id="Fill-11" fill="#19645B" points="165.05 35 159.05 35 159.05 3.3128129 165.05 0 165.05 35"></polyline>
                    <path d="M184.348081,26.7703535 L184.348081,17.4055666 C183.328142,16.0337972 181.773962,15.2771178 179.831673,15.2771178 C177.257554,15.2771178 175.849009,17.4526015 175.849009,21.6149445 C175.849009,26.7230762 177.597368,28.851525 180.220031,28.851525 C182.308453,28.851525 183.376687,28.0000485 184.348081,26.7703535 Z M191.05,34.4799496 L184.348081,34.4799496 L184.348081,32.9190709 C183.085418,34.006934 181.385604,35 178.957369,35 C173.517863,35 169.05,31.0272511 169.05,21.7567764 C169.05,14.3310867 172.643559,9.12840033 178.957369,9.12840033 C181.191176,9.12840033 183.133963,9.97963439 184.348081,11.0674975 L184.348081,3.2635892 L191.05,0 L191.05,34.4799496 L191.05,34.4799496 Z" id="Fill-12" fill="#19645B"></path>
                    <path d="M195.556375,35 L202.543884,35 L202.543884,10.4132499 L195.556375,10.4132499 L195.556375,35 Z M203.05,4.69981148 C203.05,6.7136785 201.227205,8.3993829 199.05013,8.3993829 C196.872795,8.3993829 195.05,6.7136785 195.05,4.69981148 C195.05,2.68594446 196.872795,1 199.05013,1 C201.227205,1 203.05,2.68594446 203.05,4.69981148 L203.05,4.69981148 Z" id="Fill-13" fill="#19645B"></path>
                    <path d="M231.05,35 L224.37743,35 L224.37743,21.2240903 C224.37743,16.6643619 222.829866,15.3059915 220.074041,15.3059915 C217.317969,15.3059915 215.72257,16.6643619 215.72257,21.0783819 L215.72257,35 L209.05,35 L209.05,9.53360111 L215.72257,9.53360111 L215.72257,11.2313776 C216.882748,10.0187156 219.010277,9 221.669688,9 C228.148689,9 231.05,13.4627552 231.05,20.6417539 L231.05,35" id="Fill-14" fill="#19645B"></path>
                    <path d="M249.348406,26.9080413 L249.348406,17.4020082 C248.327732,16.0095489 246.774316,15.2414567 244.832547,15.2414567 C242.257213,15.2414567 240.848932,17.4497525 240.848932,21.6748748 C240.848932,26.8600509 242.597022,29.0206025 245.220901,29.0206025 C247.307058,29.0206025 248.377521,28.1562834 249.348406,26.9080413 Z M256.05,30.4610522 C256.05,38.7668335 254.011142,43.0397002 245.074023,44 L242.694111,39.0067855 C247.939378,38.2866836 249.348406,37.0384415 249.348406,33.1494979 C248.086255,34.2537689 246.385962,35.261813 243.956261,35.261813 C238.517813,35.261813 234.05,31.2291444 234.05,21.818846 C234.05,14.2811568 237.643518,9 243.956261,9 C246.191785,9 248.133555,9.86407296 249.348406,10.9683439 L249.348406,9.52814029 L256.05,9.52814029 L256.05,30.4610522 L256.05,30.4610522 Z" id="Fill-15" fill="#19645B"></path>
                    <polygon id="Fill-16" fill="#FFFFFE" points="0.04995 75 0.05005 75 0.05005 2 0.04995 2"></polygon>
                    <polyline id="Fill-17" fill="#FFFFFE" points="67.05 69 67.05 41 67.05 69"></polyline>
                    <polyline id="Fill-18" fill="#FFFFFE" points="53.05 41 53.05025 41 56.05 35 53.05 41"></polyline>
                    <polyline id="Fill-19" fill="#FFFFFE" points="67.05 36 67.05 8 67.05 36"></polyline>
                    <polyline id="Fill-20" fill="#B5D071" points="43.615306 46.7366472 52.349471 29.2645661 62.05 29.2645661 62.05 13 12.05 13 12.05 63 62.05 63 62.05 46.7366472 43.615306 46.7366472"></polyline>
                    <path d="M67.2484386,35.6003549 L55.3724462,35.6003549 L52.4728739,41.4008535 L67.2484386,41.4008535 L67.2484386,69.1995014 L5.8513197,69.1995014 L5.8513197,7.8004986 L67.2484386,7.8004986 L67.2484386,35.6003549 Z M0.05,75 L73.05,75 L73.05,2 L0.05,2 L0.05,75 Z" id="Fill-21" fill="#E78B6F"></path>
                </g>
            </g>
        </g>
    </g>
</svg>