<svg xmlns="http://www.w3.org/2000/svg" xmlns:xlink="http://www.w3.org/1999/xlink" width="202" height="59" viewBox="0 0 202 59"><defs><polygon id="a" points="0 0 16.931 0 16.931 20.354 0 20.354"/><polygon id="c" points="0 59 201.087 59 201.087 0 0 0"/></defs><g fill="none" fill-rule="evenodd"><path fill="#FFF" d="M85.1136715 50.2553674C85.1136715 48.0228916 83.9228525 46.906463 81.3924336 46.906463L74.4712629 46.906463 74.4712629 53.6416577 81.3924336 53.6416577C83.9228525 53.6416577 85.1136715 52.3020578 85.1136715 50.2553674M84.2949954 39.8363207C84.2949954 38.1989684 83.3647336 37.3432877 81.0948719 37.3432877L74.4712629 37.3432877 74.4712629 42.2923492 81.3552384 42.2923492C83.5135144 42.2923492 84.2949954 41.2875062 84.2949954 39.8363207M90.4720711 50.1809769C90.4720711 55.6511529 86.7880283 58.5907191 81.2064575 58.5907191L69.3732298 58.5907191 69.3732298 32.5430071 81.3182339 32.5430071C86.378881 32.5430071 89.5790045 34.9616497 89.5790045 39.4269826 89.5790045 41.6598398 88.5369663 43.4457823 86.8254143 44.4878205 88.9091092 45.4180823 90.4720711 47.3158011 90.4720711 50.1809769M104.425998 52.8602149 104.425998 50.4043771C103.532741 49.8460674 102.67706 49.5857009 100.853541 49.5857009 98.918627 49.5857009 97.8767796 50.4787675 97.8767796 52.0415387 97.8767796 53.4185245 98.6582605 54.646348 100.853541 54.646348 102.528279 54.646348 103.867688 53.7904767 104.425998 52.8602149L104.425998 52.8602149ZM109.561036 58.5907573 104.425998 58.5907573 104.425998 57.2883526C103.495546 58.2558096 101.858384 58.9999046 100.034865 58.9999046 96.3882081 58.9999046 92.7415513 56.7672381 92.7415513 52.0415387 92.7415513 47.7249866 96.2394272 45.5669013 100.667565 45.5669013 102.453698 45.5669013 103.607322 45.9390441 104.425998 46.3481915L104.425998 45.3807345C104.425998 44.0039394 103.495546 42.8877015 101.635022 42.8877015 99.2907699 42.8877015 98.0629464 43.2226492 96.2766225 44.1901062L94.3045132 40.6176491C96.5743749 39.3152444 98.4720937 38.6457306 101.635022 38.6457306 106.360912 38.6457306 109.561036 41.1015683 109.561036 45.4923201L109.561036 58.5907573Z"/><polygon fill="#FFF" points="119.273 58.591 114.138 58.591 114.138 34.031 119.273 31.464"/><path fill="#FFF" d="M134.566824 52.8602149 134.566824 50.4043771C133.673567 49.8460674 132.817886 49.5857009 130.994367 49.5857009 129.059453 49.5857009 128.017605 50.4787675 128.017605 52.0415387 128.017605 53.4185245 128.799086 54.646348 130.994367 54.646348 132.669105 54.646348 134.008514 53.7904767 134.566824 52.8602149L134.566824 52.8602149ZM139.701862 58.5907573 134.566824 58.5907573 134.566824 57.2883526C133.636371 58.2558096 131.99921 58.9999046 130.175691 58.9999046 126.529034 58.9999046 122.882377 56.7672381 122.882377 52.0415387 122.882377 47.7249866 126.380253 45.5669013 130.808391 45.5669013 132.594524 45.5669013 133.748148 45.9390441 134.566824 46.3481915L134.566824 45.3807345C134.566824 44.0039394 133.636371 42.8877015 131.775848 42.8877015 129.431596 42.8877015 128.203772 43.2226492 126.417448 44.1901062L124.445339 40.6176491C126.715201 39.3152444 128.61292 38.6457306 131.775848 38.6457306 136.501738 38.6457306 139.701862 41.1015683 139.701862 45.4923201L139.701862 58.5907573ZM161.135479 58.5907573 156.000251 58.5907573 156.000251 48.0229298C156.000251 44.5250538 154.809622 43.4830156 152.688541 43.4830156 150.567461 43.4830156 149.339446 44.5250538 149.339446 47.9111534L149.339446 58.5907573 144.204218 58.5907573 144.204218 39.0548779 149.339446 39.0548779 149.339446 40.3572826C150.232513 39.4270208 151.869865 38.6457306 153.916365 38.6457306 158.902812 38.6457306 161.135479 42.0690253 161.135479 47.5762057L161.135479 58.5907573ZM181.638853 54.6464053C179.741135 57.1768242 177.508468 58.9999619 173.638449 58.9999619 168.540416 58.9999619 164.484421 54.8325721 164.484421 48.8412817 164.484421 42.8503728 168.428831 38.645597 173.861811 38.645597 177.582668 38.645597 179.964306 40.4689254 181.601658 42.9619584L178.215368 46.3854439C177.061744 44.7480916 175.83373 43.5946585 173.750035 43.5946585 171.294197 43.5946585 169.69404 45.6413489 169.69404 48.8412817 169.69404 51.9672055 171.294197 54.0510911 173.750035 54.0510911 175.75953 54.0510911 177.02474 53.1578338 178.364149 51.5578674L181.638853 54.6464053Z"/><g transform="translate(183.722 38.646)"><mask id="b" fill="#fff"><use xlink:href="#a"/></mask><path fill="#FFF" d="M11.9446226,7.96301816 C11.7958418,6.21408019 10.7539943,4.46533296 8.44674667,4.46533296 C6.58622306,4.46533296 5.43259924,5.99090891 5.24681392,7.96301816 L11.9446226,7.96301816 Z M16.93107,10.1956846 C16.93107,10.9399704 16.8936841,11.4608941 16.8564889,11.833037 L5.17223275,11.833037 C5.35839956,14.5122368 7.3305088,15.5170797 9.19103241,15.5170797 C10.6052135,15.5170797 11.7958418,14.9959653 12.5401275,14.1402846 L16.1867843,17.1914365 C14.6240131,19.2009317 11.7958418,20.3543648 9.19103241,20.3543648 C3.57207563,20.3543648 -2.16851595e-14,16.3727604 -2.16851595e-14,10.1956846 C-2.16851595e-14,4.20477573 3.75824243,0 8.7073039,0 C13.9169226,0 16.93107,4.61411381 16.93107,10.1956846 L16.93107,10.1956846 Z" mask="url(#b)"/></g><path fill="#FFF" d="M85.3461321 18.791422C85.3461321 16.5589462 84.155313 15.4425176 81.6248941 15.4425176L74.7037234 15.4425176 74.7037234 22.1777123 81.6248941 22.1777123C84.155313 22.1777123 85.3461321 20.8381124 85.3461321 18.791422M84.5274559 8.37237532C84.5274559 6.73502299 83.5971941 5.87934235 81.3273324 5.87934235L74.7037234 5.87934235 74.7037234 10.8284038 81.5876989 10.8284038C83.745975 10.8284038 84.5274559 9.82356085 84.5274559 8.37237532M90.7045316 18.7170316C90.7045316 24.1872075 87.0204889 27.1267738 81.4389181 27.1267738L69.6056903 27.1267738 69.6056903 1.07906173 81.5506944 1.07906173C86.6113415 1.07906173 89.811465 3.49770427 89.811465 7.96303724 89.811465 10.1958945 88.7694269 11.9818369 87.0578748 13.0238751 89.1415697 13.9541369 90.7045316 15.8518557 90.7045316 18.7170316M110.723739 27.126831 105.588511 27.126831 105.588511 25.8244263C104.695444 26.7546881 103.058092 27.5361691 101.011592 27.5361691 96.0251447 27.5361691 93.7924782 24.1126836 93.7924782 18.6055031L93.7924782 7.59095159 98.9277065 7.59095159 98.9277065 18.1587791C98.9277065 21.656655 100.118526 22.6986932 102.239606 22.6986932 104.360687 22.6986932 105.588511 21.656655 105.588511 18.2705555L105.588511 7.59095159 110.723739 7.59095159 110.723739 27.126831Z"/><mask id="d" fill="#fff"><use xlink:href="#c"/></mask><path fill="#FFF" d="M115.11079,27.1267547 L120.246019,27.1267547 L120.246019,7.59087529 L115.11079,7.59087529 L115.11079,27.1267547 Z M120.618161,3.05134265 C120.618161,4.65130903 119.278562,5.99090891 117.678404,5.99090891 C116.078438,5.99090891 114.738647,4.65130903 114.738647,3.05134265 C114.738647,1.45118553 116.078438,0.111585638 117.678404,0.111585638 C119.278562,0.111585638 120.618161,1.45118553 120.618161,3.05134265 L120.618161,3.05134265 Z" mask="url(#d)"/><polygon fill="#FFF" points="129.809 27.127 124.674 27.127 124.674 2.567 129.809 0" mask="url(#d)"/><path fill="#FFF" d="M145.021101 21.06136 145.021101 13.693656C144.23962 12.6144226 143.048801 12.0191084 141.56042 12.0191084 139.588311 12.0191084 138.509078 13.7306604 138.509078 17.0053651 138.509078 21.0241648 139.848678 22.6987123 141.858173 22.6987123 143.45833 22.6987123 144.276815 22.028817 145.021101 21.06136L145.021101 21.06136ZM150.156139 27.1268501 145.021101 27.1268501 145.021101 25.8988358C144.053644 26.7547072 142.75124 27.5359974 140.890716 27.5359974 136.722945 27.5359974 133.29965 24.4104551 133.29965 17.1169507 133.29965 11.2748227 136.053049 7.18163258 140.890716 7.18163258 142.602268 7.18163258 144.090839 7.85133715 145.021101 8.70720853L145.021101 2.56751877 150.156139-.0000953723401 150.156139 27.1268501ZM154.576628 27.1267547 159.711856 27.1267547 159.711856 7.59087529 154.576628 7.59087529 154.576628 27.1267547ZM160.083808 3.05134265C160.083808 4.65130903 158.744208 5.99090891 157.144242 5.99090891 155.544085 5.99090891 154.204485 4.65130903 154.204485 3.05134265 154.204485 1.45118553 155.544085.111585638 157.144242.111585638 158.744208.111585638 160.083808 1.45118553 160.083808 3.05134265L160.083808 3.05134265ZM180.989139 27.126831 175.853911 27.126831 175.853911 16.5590035C175.853911 13.0611275 174.663092 12.0190893 172.542201 12.0190893 170.421121 12.0190893 169.193106 13.0611275 169.193106 16.4472271L169.193106 27.126831 164.057878 27.126831 164.057878 7.59095159 169.193106 7.59095159 169.193106 8.89335627C170.086173 7.96309446 171.723525 7.18180425 173.770025 7.18180425 178.756472 7.18180425 180.989139 10.605099 180.989139 16.1122794L180.989139 27.126831ZM195.951609 21.06136 195.951609 13.693656C195.170128 12.6144226 193.979309 12.0191084 192.490929 12.0191084 190.518819 12.0191084 189.439586 13.7306604 189.439586 17.0053651 189.439586 21.0241648 190.779186 22.6987123 192.788681 22.6987123 194.388838 22.6987123 195.207324 22.028817 195.951609 21.06136L195.951609 21.06136ZM201.086647 23.8151409C201.086647 30.2525831 199.523876 33.5642923 192.676905 34.308578L190.853576 30.4385592C194.872567 29.8804403 195.951609 28.9129832 195.951609 25.8988358 194.984152 26.7547072 193.681748 27.5359974 191.821224 27.5359974 187.653453 27.5359974 184.230158 24.4104551 184.230158 17.1169507 184.230158 11.2748227 186.983557 7.18163258 191.821224 7.18163258 193.532776 7.18163258 195.021348 7.85133715 195.951609 8.70720853L195.951609 7.59097066 201.086647 7.59097066 201.086647 23.8151409Z" mask="url(#d)"/><polygon fill="#FFF" points="0 58.638 0 58.638 0 1.025 0 1.025" mask="url(#d)"/><path fill="#FFF" d="M53.0337353,54.0599035 L53.0337353,32.1204504 L53.0337353,54.0599035 Z" mask="url(#d)"/><polygon fill="#FFF" points="41.373 32.121 41.373 32.121 43.661 27.543" mask="url(#d)"/><polygon fill="#FFF" points="53.034 27.543 53.034 27.543 53.034 5.603" mask="url(#d)"/><polygon fill="#C7D66A" points="33.967 36.698 37.278 30.074 39.566 25.496 40.831 22.965 43.661 22.965 48.456 22.965 48.456 10.181 9.157 10.181 9.157 49.482 48.456 49.482 48.456 36.698 41.373 36.698" mask="url(#d)"/><path fill="#F09376" d="M53.0337353,27.5426544 L53.0337353,27.5426544 L43.6611139,27.5426544 L41.37275,32.1205267 L53.0337353,32.1205267 L53.0337353,54.0599798 L4.57867345,54.0599798 L4.57867345,54.0599798 L4.57867345,5.60262904 L4.57867345,5.60262904 L53.0337353,5.60262904 L53.0337353,27.5426544 Z M0.000228893616,58.6378522 L57.6123706,58.6378522 L57.6123706,1.02475672 L0.000228893616,1.02475672 L0.000228893616,58.6378522 Z" mask="url(#d)"/></g></svg>